# xmcd
#
# Track frame offsets:
# 150
# 18589
# 31378
# 45004
# 61894
# 78724
# 103285
# 113923
# 129042
# 152982
# 168121
# 191518
#
# Disc length: 2804 seconds
#
#
# Revision: 0
# Processed by: cddbd v1.5.1PL0 Copyright (c) Steve Scherf et al.
# Submitted via: FreeRIP 2.92 
#
DISCID=900af20c
DTITLE=Bryn Fon - Dawnsio ar y Dibyn
DYEAR=1900
DGENRE=
TTITLE0=coedwig ar dan
TTITLE1=fy nghalon i
TTITLE2=un funud fach
TTITLE3=boddi wrth y lan
TTITLE4=gwaed ac aur
TTITLE5=dawnsio ar y dibyn
TTITLE6=y bai
TTITLE7=chwarae'r gem
TTITLE8=llythyrau tyddyn-y-gaseg
TTITLE9=tan ar fynydd cennin
TTITLE10=strydoedd aberstalwm
TTITLE11=yn yr ardd
EXTD=
EXTT0=
EXTT1=
EXTT2=
EXTT3=
EXTT4=
EXTT5=
EXTT6=
EXTT7=
EXTT8=
EXTT9=
EXTT10=
EXTT11=
PLAYORDER=
